# xmcd
#
# Track frame offsets:
#	150
#	11315
#	25612
#	37055
#	52560
#
# Disc length: 913 seconds
#
# Revision: 7
# Processed by: cddbd v1.5.2PL0 Copyright (c) Steve Scherf et al.
# Submitted via: audiograbber 1.83.01
#
DISCID=28038f05
DTITLE=Patricia Kaas - Patricia Kaas (Deluxe Edition) CD2
DYEAR=2016
DGENRE=Variété Française
TTITLE0=Adèle (Version Acoustique)
TTITLE1=Sans tes mains (Version Acoustique)
TTITLE2=Embrasse (Version Acoustique)
TTITLE3=Cogne (Version Acoustique)
TTITLE4=Le refuge (Version Acoustique)
EXTD=CD 2
EXTT0=
EXTT1=
EXTT2=
EXTT3=
EXTT4=
PLAYORDER=
